<?xml version="1.0" encoding="UTF-8" standalone="no"?>
<!-- Created with Inkscape (http://www.inkscape.org/) -->

<svg
   width="208.41592mm"
   height="207.83012mm"
   viewBox="0 0 208.41592 207.83012"
   version="1.1"
   id="svg1"
   xml:space="preserve"
   inkscape:export-filename="bitmap.svg"
   inkscape:export-xdpi="96"
   inkscape:export-ydpi="96"
   inkscape:version="1.4.2 (f4327f4, 2025-05-13)"
   sodipodi:docname="dibujo.svg"
   xmlns:inkscape="http://www.inkscape.org/namespaces/inkscape"
   xmlns:sodipodi="http://sodipodi.sourceforge.net/DTD/sodipodi-0.dtd"
   xmlns:xlink="http://www.w3.org/1999/xlink"
   xmlns="http://www.w3.org/2000/svg"
   xmlns:svg="http://www.w3.org/2000/svg"><sodipodi:namedview
     id="namedview1"
     pagecolor="#505050"
     bordercolor="#eeeeee"
     borderopacity="1"
     inkscape:showpageshadow="0"
     inkscape:pageopacity="0"
     inkscape:pagecheckerboard="0"
     inkscape:deskcolor="#505050"
     inkscape:document-units="mm"
     inkscape:clip-to-page="false"
     inkscape:export-bgcolor="#00000000"
     inkscape:zoom="0.35355339"
     inkscape:cx="87.68124"
     inkscape:cy="213.54625"
     inkscape:window-width="1366"
     inkscape:window-height="745"
     inkscape:window-x="-8"
     inkscape:window-y="-8"
     inkscape:window-maximized="1"
     inkscape:current-layer="layer1" /><defs
     id="defs1"><linearGradient
       id="linearGradient42"
       inkscape:collect="always"><stop
         style="stop-color:#ffffff;stop-opacity:0.32564843;"
         offset="0"
         id="stop43" /><stop
         style="stop-color:#f3b3ef;stop-opacity:1;"
         offset="1"
         id="stop44" /></linearGradient><linearGradient
       id="swatch38"
       inkscape:swatch="solid"><stop
         style="stop-color:#f9a1fb;stop-opacity:1;"
         offset="0"
         id="stop38" /></linearGradient><linearGradient
       id="linearGradient33"
       inkscape:collect="always"><stop
         style="stop-color:#fc7dfe;stop-opacity:1;"
         offset="0.13441952"
         id="stop33" /><stop
         style="stop-color:#ed9bed;stop-opacity:1;"
         offset="1"
         id="stop34" /></linearGradient><radialGradient
       inkscape:collect="always"
       xlink:href="#linearGradient33"
       id="radialGradient38"
       cx="105.79204"
       cy="149.79826"
       fx="105.79204"
       fy="149.79826"
       r="104.20796"
       gradientTransform="matrix(1,0,0,0.99718933,0,0.42103299)"
       gradientUnits="userSpaceOnUse" /><radialGradient
       inkscape:collect="always"
       xlink:href="#linearGradient42"
       id="radialGradient44"
       cx="105.79204"
       cy="149.79826"
       fx="105.79204"
       fy="149.79826"
       r="104.20796"
       gradientTransform="matrix(1,0,0,0.99718933,0,0.42103299)"
       gradientUnits="userSpaceOnUse" /></defs><g
     inkscape:label="Capa 1"
     inkscape:groupmode="layer"
     id="layer1"
     transform="translate(-1.5840809,-45.88319)"><path
       style="fill:url(#radialGradient38);fill-opacity:1;stroke:url(#radialGradient44);stroke-width:1.42814;stroke-dasharray:none"
       d="M 104.64477,252.60479 C 101.72594,252.09885 98.178114,250.46416 68.568927,235.98248 59.966832,231.77525 46.846037,225.38955 39.390663,221.78184 36.224152,220.24956 28.129464,216.28521 21.402455,212.9722 9.9691538,207.34139 9.0576241,206.81836 7.4248543,204.95186 5.5279659,202.78343 4.2107421,200.32941 3.1996271,197.08017 2.3665375,194.40303 1.9843443,181.60306 2.6128522,177.42819 c 0.5400018,-3.58702 2.5695421,-7.84815 4.516573,-9.48278 0.7824474,-0.65691 5.0624998,-3.11148 9.5112118,-5.4546 4.448713,-2.34311 8.14339,-4.42465 8.21038,-4.62561 0.06696,-0.20097 -0.787688,-1.27679 -1.899287,-2.39072 -2.292175,-2.29698 -4.179768,-5.77253 -4.82618,-8.88625 -0.26913,-1.29637 -0.387533,-4.54734 -0.305723,-8.39358 0.129782,-6.10354 0.165904,-6.34578 1.300534,-8.73309 1.718362,-3.61548 3.547476,-5.20084 9.511555,-8.24398 7.809353,-3.9847 9.149764,-4.74154 9.149764,-5.16636 0,-0.21394 -0.790999,-1.15143 -1.757769,-2.08332 -3.496534,-3.37035 -5.134116,-8.5877 -4.818127,-15.350673 0.249541,-5.341054 0.449782,-6.412816 1.637766,-8.766205 1.569592,-3.109361 3.808912,-4.907024 10.191576,-8.18156 3.031962,-1.555504 8.317488,-4.324424 11.745649,-6.153134 3.428146,-1.828714 8.272886,-4.399569 10.766087,-5.713038 2.4932,-1.313454 5.213055,-2.769627 6.044117,-3.235943 0.831077,-0.46633 3.550931,-1.911423 6.044133,-3.211328 4.52768,-2.360649 12.634563,-6.690501 18.698997,-9.987065 1.766021,-0.959974 5.437201,-2.864758 8.158191,-4.232837 4.46068,-2.242775 5.18516,-2.492202 7.36627,-2.53599 1.33047,-0.0267 3.014,0.190132 3.74119,0.481892 1.11946,0.44914 24.25582,11.47766 35.32033,16.836318 21.94708,10.629208 21.949,10.630208 22.87847,11.933454 1.38145,1.936964 1.29241,4.666374 -0.21302,6.528576 -0.62329,0.771029 -1.68427,2.086528 -2.35773,2.923316 -1.86023,2.311428 -2.46921,4.93654 -2.30118,9.919656 0.22776,6.754061 -0.15276,6.338111 10.7701,11.772751 5.0233,2.49931 9.50296,4.87878 9.95481,5.28772 2.46659,2.23222 2.46632,5.19864 -7.5e-4,7.99848 -2.04181,2.31723 -2.53203,3.28959 -3.43144,6.80628 -1.40049,5.47581 -0.55174,14.79376 1.54064,16.91424 0.41134,0.41687 5.03996,2.8828 10.28582,5.47989 8.89016,4.40128 9.59523,4.8246 10.38167,6.233 1.68393,3.01573 0.82494,6.90343 -2.00168,9.0594 -1.90122,1.45012 -3.32892,4.75237 -4.34042,10.03932 -0.89541,4.68019 -0.83813,8.70111 0.19416,13.63 0.89134,4.25585 1.95598,6.24395 4.252,7.94012 2.37232,1.75255 2.94309,2.77006 2.59492,4.62599 -0.3072,1.63756 -1.27391,2.39724 -6.64245,5.21989 -2.18156,1.14702 -5.41137,2.84833 -7.1774,3.78068 -1.76601,0.93237 -7.37572,3.86574 -12.466,6.51864 -5.09028,2.65289 -12.65488,6.60962 -16.81022,8.79273 -12.51604,6.57566 -13.98013,7.34162 -23.98761,12.54982 -5.29804,2.75726 -11.7577,6.15729 -14.3548,7.55563 -13.78145,7.42031 -16.59081,8.29528 -23.04321,7.17687 z m 16.90893,-12.21414 c 4.10105,-2.15006 8.90137,-4.67714 10.66738,-5.61574 1.76602,-0.93859 7.20574,-3.79227 12.08825,-6.3415 4.88252,-2.54921 10.06724,-5.26846 11.5216,-6.04274 2.89964,-1.54374 8.65289,-4.55534 16.24357,-8.50288 2.70099,-1.40464 5.08086,-2.68101 5.28863,-2.83638 0.20777,-0.15535 3.01261,-1.6456 6.23301,-3.31167 14.65883,-7.58372 14.98292,-7.77238 14.74221,-8.5819 -0.47477,-1.59663 -1.28864,-2.83318 -1.86467,-2.83309 -0.33023,4e-5 -1.53539,0.51263 -2.67809,1.1391 -1.14272,0.62646 -4.54255,2.41207 -7.55516,3.96801 -3.01262,1.55596 -6.07246,3.1792 -6.79964,3.60722 -0.72717,0.42802 -3.78703,2.04166 -6.79965,3.58588 -3.01259,1.54422 -7.43237,3.84621 -9.8217,5.11552 -2.38931,1.26933 -6.63908,3.50219 -9.44393,4.96189 -6.08307,3.16579 -11.98279,6.25799 -15.86583,8.31569 -3.75278,1.9887 -10.84364,5.69303 -16.36559,8.54955 -2.45645,1.27071 -4.80225,2.31039 -5.21293,2.31039 -2.25079,0 -4.13123,-2.38868 -3.4617,-4.39732 0.52734,-1.58199 2.26064,-2.73414 10.87433,-7.22835 7.64421,-3.98839 11.85159,-6.19885 18.69899,-9.82403 1.76602,-0.93497 5.1082,-2.69144 7.42708,-3.90325 2.31886,-1.21181 5.06301,-2.70263 6.09811,-3.31294 1.03509,-0.61032 3.21761,-1.75092 4.85006,-2.53466 1.63244,-0.78376 5.34793,-2.72668 8.25667,-4.31759 2.90874,-1.59092 6.90351,-3.70277 8.8773,-4.693 1.97378,-0.99024 3.75869,-1.93057 3.96647,-2.08963 0.20776,-0.15905 2.58762,-1.43774 5.28859,-2.84151 8.07436,-4.19646 7.91921,-4.05978 7.51023,-6.61745 -0.23313,-1.45793 -0.23313,-1.45793 -2.17082,-0.69416 -1.06574,0.42007 -2.10811,0.90065 -2.3164,1.06795 -0.20829,0.16729 -3.77852,2.04941 -7.93385,4.18245 -4.15535,2.13307 -8.49011,4.41418 -9.63281,5.06913 -1.14273,0.65497 -4.20256,2.27108 -6.79965,3.59137 -2.59708,1.3203 -5.31694,2.73607 -6.04414,3.14615 -0.72717,0.41009 -5.06193,2.69499 -9.63281,5.07758 -4.57087,2.38257 -9.18457,4.81538 -10.25266,5.40622 -1.06811,0.59083 -4.80791,2.55254 -8.31068,4.35937 -3.50276,1.80681 -8.05032,4.21889 -10.10569,5.36015 -2.73884,1.52077 -4.1303,2.07502 -5.20942,2.07502 -2.69574,0 -4.37221,-2.63451 -3.16364,-4.9716 0.65739,-1.27126 0.87545,-1.40571 10.78794,-6.65125 7.64205,-4.04406 12.38228,-6.55984 15.29918,-8.11979 2.14574,-1.14751 5.70102,-3.02913 19.64341,-10.39621 5.40192,-2.85435 12.45655,-6.59398 15.67693,-8.31029 3.22039,-1.71631 7.81013,-4.13938 10.19946,-5.38459 6.80842,-3.54825 9.32045,-4.96269 9.76502,-5.49837 0.22631,-0.27269 0.52653,-1.47474 0.66716,-2.67122 0.25568,-2.17542 0.25568,-2.17542 -1.18726,-1.57252 -0.7936,0.33161 -1.62598,0.75367 -1.84968,0.93794 -0.2237,0.18426 -2.53161,1.42833 -5.1287,2.76458 -9.34274,4.80705 -16.95346,8.78593 -25.12088,13.13314 -4.57087,2.4329 -12.56043,6.64774 -17.75461,9.36629 -5.19417,2.71856 -12.33379,6.48303 -15.86582,8.36551 -3.53203,1.88249 -8.19565,4.31303 -10.36358,5.40119 -8.40904,4.22083 -10.47586,8.40783 -10.11578,20.49269 0.27806,9.33227 1.65264,12.65488 5.23539,12.65488 1.12594,0 3.18755,-0.90343 8.9208,-3.90923 z m -20.05852,2.6107 c -1.03964,-2.70926 -1.19444,-4.30723 -1.19149,-12.30074 0.003,-7.67573 0.0853,-8.78372 0.84996,-11.43139 0.46575,-1.6125 0.84683,-3.23356 0.84683,-3.60234 0,-0.47132 -0.91417,-1.09152 -3.077169,-2.08767 -4.066176,-1.87265 -4.501325,-1.89352 -5.323905,-0.25547 -0.590816,1.17653 -0.661661,2.57034 -0.643214,12.65489 0.01428,7.7389 0.163719,11.75201 0.471612,12.65488 0.387334,1.13581 0.930048,1.57311 3.850702,3.10274 3.573864,1.87173 4.563374,2.1686 4.216674,1.2651 z M 85.831385,224.27871 c 0.108939,-10.47858 0.166518,-11.27837 0.965056,-13.39729 0.467087,-1.2394 0.849238,-2.36167 0.849238,-2.49395 0,-0.42223 -5.259216,-2.68164 -5.66224,-2.43255 -0.212991,0.13164 -0.683519,0.78103 -1.045638,1.4431 -0.586189,1.07175 -0.65839,2.49517 -0.65839,12.98083 0,11.29144 0.03213,11.82105 0.777636,12.84377 0.860558,1.18044 3.93815,2.92488 4.378466,2.48179 0.15404,-0.155 0.33218,-5.29658 0.395872,-11.4257 z m -12.886717,4.62755 c 0.01743,-0.57137 0.0071,-4.43866 -0.02384,-8.59398 -0.06168,-8.41243 0.42454,-13.51488 1.525076,-16.00284 0.403609,-0.9124 0.733847,-1.80946 0.733847,-1.99344 0,-0.18399 -0.892456,-0.7381 -1.98324,-1.23139 -1.090768,-0.49329 -5.553029,-2.63255 -9.916134,-4.75393 -4.363105,-2.12138 -9.717808,-4.71424 -11.899359,-5.76193 -2.181553,-1.04768 -11.191071,-5.38624 -20.021162,-9.64125 -8.830078,-4.25502 -16.651996,-7.81806 -17.382017,-7.91786 -1.069068,-0.14617 -1.51905,0.01 -2.312834,0.80403 -1.6962611,1.69626 -2.026213,3.7626 -2.026213,12.68929 0,8.12179 0,8.12179 1.234386,10.64518 0.752151,1.53763 1.785167,2.95803 2.644299,3.63591 0.775451,0.61188 7.019625,3.83439 13.87593,7.16112 18.964701,9.20185 35.389471,17.23821 40.354214,19.74465 2.456979,1.24039 4.624368,2.25527 4.816413,2.25527 0.192033,0 0.363348,-0.46747 0.380694,-1.03883 z M 61.958165,214.18957 c -0.854148,-0.31324 -10.871496,-5.17289 -35.947376,-17.43895 -3.876886,-1.89641 -7.198137,-3.44802 -7.380531,-3.44802 -0.182409,0 -0.889186,-0.46748 -1.57062,-1.03884 -2.701493,-2.26511 -1.669234,-6.10522 1.675874,-6.23446 1.208316,-0.0466 2.637616,0.47936 6.610762,2.43299 5.865649,2.88418 14.38989,7.0326 27.734585,13.49732 13.014014,6.30454 12.757348,6.16066 13.470578,7.55201 0.701066,1.36762 0.439961,3.0111 -0.673925,4.24194 -0.622297,0.68762 -2.625552,0.91048 -3.919347,0.43601 z m 45.889275,-5.76326 c 0.2832,-0.45824 5.28015,-3.22716 15.68522,-8.69152 4.46699,-2.34591 10.92663,-5.74872 14.35478,-7.56181 3.42817,-1.8131 7.93292,-4.19227 10.01059,-5.28706 2.07766,-1.0948 5.13752,-2.71364 6.79963,-3.59746 1.66213,-0.8838 8.88675,-4.70645 16.05469,-8.49476 7.16796,-3.78832 14.64757,-7.7517 16.62135,-8.80753 1.9738,-1.05583 5.22263,-2.77866 7.21963,-3.82853 4.08752,-2.14888 5.52285,-3.0615 5.24638,-3.33581 -0.59123,-0.58658 -11.07314,-5.56154 -11.71784,-5.56154 -0.67728,0 -7.10123,2.97416 -8.11445,3.75681 -0.20777,0.16049 -2.84263,1.56688 -5.85524,3.12533 -3.01262,1.55841 -6.24244,3.25622 -7.17739,3.77289 -0.93495,0.51668 -3.9098,2.09401 -6.61077,3.50518 -2.70095,1.41116 -5.08082,2.68619 -5.28859,2.83338 -0.20778,0.14717 -2.75764,1.50605 -5.66636,3.01975 -2.90875,1.51368 -5.45861,2.87702 -5.66638,3.02965 -0.20778,0.15263 -2.24766,1.2566 -4.53309,2.45327 -10.7588,5.63335 -14.52644,7.6252 -16.62133,8.7873 -6.26989,3.47803 -12.18245,6.12132 -14.51404,6.48869 -2.29913,0.36227 -6.32621,0.0733 -8.191214,-0.58762 -1.777346,-0.62991 -7.675691,-3.38722 -18.281456,-8.54604 -4.051456,-1.9707 -10.936088,-5.31773 -15.299179,-7.43786 -4.363104,-2.1201 -10.652766,-5.18886 -13.977044,-6.81944 -11.781084,-5.77872 -18.014306,-8.69287 -18.593573,-8.69287 -0.76814,0 -11.809967,5.76203 -11.813322,6.16465 -0.0029,0.27 5.664338,3.09268 18.507537,9.21906 1.973787,0.94152 6.393544,3.07017 9.821705,4.73032 3.428144,1.66016 9.547819,4.59508 13.599276,6.52206 4.051442,1.92698 11.601702,5.56368 16.778351,8.08156 5.176648,2.51786 11.29281,5.46841 13.59148,6.55677 2.298684,1.08835 5.797839,2.7827 7.775909,3.76521 3.47775,1.72741 5.38616,2.19613 5.85474,1.43797 z m -6.61594,-22.9622 c -0.007,-0.36358 -0.25973,-1.68101 -0.56072,-2.92761 -0.729011,-3.01916 -0.726103,-11.99352 0.006,-15.44444 0.30304,-1.43035 0.4677,-2.73538 0.36593,-2.90003 -0.1018,-0.16469 -0.82015,-0.50644 -1.596364,-0.75949 -0.776236,-0.25304 -5.831098,-2.62672 -11.233029,-5.27482 -27.076723,-13.2734 -31.806759,-15.54634 -32.741361,-15.73326 -1.638738,-0.32775 -1.9015,1.34822 -1.758126,11.21359 0.09822,6.76296 0.239304,8.67614 0.690172,9.36382 0.311648,0.47537 1.586582,1.35262 2.83319,1.94947 5.752958,2.75443 38.193592,18.52907 41.175582,20.0221 2.659716,1.33169 2.837466,1.36261 2.819726,0.49067 z M 81.979313,170.5814 c -3.428146,-1.68983 -9.122837,-4.4899 -12.65488,-6.22242 -6.845012,-3.35758 -7.236356,-3.59733 -8.233566,-5.04419 -0.937357,-1.36004 -0.792056,-2.56447 0.460477,-3.81703 1.783582,-1.78356 3.072622,-1.55219 9.846404,1.76728 15.561541,7.62594 19.774347,9.82518 20.438692,10.66975 1.645077,2.09138 0.02027,5.72824 -2.556236,5.7217 -0.587332,-9.9e-4 -3.872731,-1.38528 -7.300891,-3.07509 z m 34.090207,12.00237 c 2.54647,-1.32448 7.09483,-3.7275 10.10744,-5.34004 3.01261,-1.61252 8.28233,-4.41695 11.71048,-6.23204 3.42817,-1.81508 8.52789,-4.53207 11.33273,-6.03774 2.80486,-1.50568 8.24456,-4.40508 12.08825,-6.44317 8.91782,-4.72858 17.77573,-9.48911 18.70446,-10.05237 0.70545,-0.42787 0.7019,-0.49781 -0.15825,-3.12148 -0.48391,-1.4761 -1.02273,-2.77212 -1.19736,-2.88004 -0.36813,-0.22753 -4.04765,1.58768 -11.44082,5.6441 -2.87969,1.58002 -5.31403,2.87275 -5.40963,2.87275 -0.0955,0 -1.98924,0.997 -4.20812,2.21556 -2.21887,1.21856 -6.49917,3.49263 -9.5118,5.0535 -3.01261,1.56086 -7.68737,4.02235 -10.38834,5.46999 -20.19659,10.82477 -20.65735,11.05969 -21.6921,11.05969 -1.9229,0 -3.80921,-1.83467 -3.80511,-3.70091 0.003,-1.15571 1.37542,-2.89473 2.87432,-3.64083 0.80766,-0.40203 2.9134,-1.52795 4.67941,-2.50203 1.76602,-0.97409 6.52577,-3.51839 10.57722,-5.65403 4.05144,-2.13562 9.49115,-5.02321 12.08824,-6.41684 2.59707,-1.39364 6.42188,-3.42991 8.49955,-4.52502 2.07766,-1.09515 5.73248,-3.05161 8.12179,-4.34773 2.38931,-1.29613 6.04411,-3.25532 8.12179,-4.35377 8.5245,-4.50687 9.92581,-5.28858 10.29908,-5.74529 0.44772,-0.54784 1.06883,-7.08879 0.67314,-7.08879 -0.14355,0 -2.07604,0.95852 -4.29446,2.13007 -2.21841,1.17154 -7.0083,3.69436 -10.64422,5.6063 -3.63592,1.91192 -8.14068,4.29068 -10.01057,5.28613 -1.86991,0.99543 -6.07718,3.23235 -9.34951,4.97091 -3.27233,1.73856 -8.62704,4.58475 -11.89936,6.32487 -8.55655,4.55012 -14.69826,7.76099 -17.15125,8.96668 -4.45371,2.18907 -6.4437,4.98215 -7.1645,10.05577 -0.46069,3.24281 -0.19557,9.59973 0.49673,11.91044 0.43856,1.46375 1.8404,2.92352 2.80755,2.92352 0.28228,0 2.59674,-1.08367 5.14322,-2.40816 z M 46.320055,150.67053 c 0.107658,-5.89149 0.297742,-8.39609 0.734689,-9.68312 0.324184,-0.95483 0.494928,-2.02637 0.379452,-2.38119 -0.115505,-0.35482 -1.337498,-1.12613 -2.715558,-1.71404 -3.821104,-1.63014 -3.72603,-1.8727 -3.72603,9.50479 0,8.11881 0.08366,9.48031 0.633947,10.31986 0.722398,1.10209 3.734413,2.67883 4.223686,2.21102 0.178482,-0.17066 0.389903,-3.88644 0.469814,-8.25732 z m 61.157915,5.22633 c 1.4229,-0.96235 2.75165,-1.68951 12.08823,-6.61536 2.07767,-1.09617 8.62232,-4.58487 14.54368,-7.75266 5.92134,-3.16782 13.57093,-7.24957 16.99908,-9.07055 3.42815,-1.82102 8.95287,-4.76888 12.27713,-6.55082 3.32426,-1.78196 8.54905,-4.55861 11.61066,-6.17036 3.06158,-1.61175 5.56896,-3.13912 5.57192,-3.39416 0.003,-0.25506 -1.82201,-1.33362 -4.05549,-2.39679 -4.06091,-1.93304 -4.06091,-1.93304 -6.51632,-0.65681 -11.52349,5.98946 -15.35222,8.00601 -15.67695,8.25686 -0.20777,0.1605 -2.58765,1.4332 -5.28862,2.82821 -2.70096,1.39503 -5.08083,2.65992 -5.2886,2.8109 -0.20778,0.15098 -2.24766,1.257 -4.53309,2.45782 -2.28543,1.20082 -6.4502,3.41525 -9.25507,4.92095 -23.23174,12.47127 -24.13025,12.84336 -28.66537,11.87074 -1.16174,-0.24916 -7.293426,-3.01704 -14.3522,-6.47869 -6.778151,-3.32406 -17.168655,-8.40354 -23.09,-11.28775 -5.921362,-2.88423 -12.069605,-5.92557 -13.66277,-6.75854 -1.593178,-0.83296 -3.16868,-1.51448 -3.50113,-1.51448 -0.813787,0 -7.876416,3.56437 -8.462934,4.27107 -0.387276,0.46665 -0.249028,0.69523 0.820183,1.35603 0.707276,0.43714 1.380287,0.79477 1.495549,0.79477 0.115219,0 5.279946,2.48639 11.477032,5.52531 6.197088,3.0389 13.477304,6.58863 16.17827,7.88826 2.700967,1.29964 10.520557,5.12199 17.376848,8.49409 13.460242,6.62011 18.337492,8.70927 19.597122,8.39434 0.44099,-0.11022 1.48175,-0.66034 2.31284,-1.22238 z m -74.120887,-3.50771 c 0.104076,-0.27137 0.20648,-3.83813 0.227467,-7.92613 0.03342,-6.51495 0.136351,-7.71653 0.833519,-9.73106 0.771581,-2.22955 0.774452,-2.31395 0.09624,-2.82082 -1.346921,-1.00667 -4.99474,-2.16594 -6.012094,-1.9106 -1.395122,0.35016 -2.678708,1.76411 -3.153391,3.47365 -0.223698,0.80567 -0.407677,3.60137 -0.408834,6.21269 -0.0029,7.36887 1.040741,9.74937 5.286499,12.05412 2.316104,1.25726 2.854077,1.36864 3.13056,0.64815 z m 77.142927,-15.83733 c 9.61791,-5.18878 26.01279,-13.97462 36.83139,-19.73753 3.42814,-1.82613 7.50792,-4.04012 9.06618,-4.92 1.55824,-0.87987 4.07232,-2.22243 5.58682,-2.98348 2.75366,-1.38372 2.75366,-1.38372 1.69991,-3.25987 -1.20006,-2.13666 -1.85365,-2.3142 -3.88691,-1.05582 -0.72719,0.45005 -4.46699,2.46503 -8.31068,4.47773 -3.84368,2.01269 -9.45338,4.97807 -12.46601,6.58972 -3.01261,1.61163 -8.36732,4.45606 -11.89936,6.32092 -3.53202,1.86487 -6.59186,3.5219 -6.79963,3.68229 -0.20777,0.16038 -2.41764,1.35606 -4.91084,2.65705 -2.49321,1.30099 -5.74397,3.02437 -7.22391,3.82974 -4.3999,2.39439 -2.92363,2.83659 -22.241194,-6.66208 -16.742444,-8.23243 -32.615134,-16.01319 -36.537036,-17.91037 -4.391632,-2.12438 -5.582942,-3.25468 -5.582942,-5.29697 0,-1.15848 0.241075,-1.80659 0.927221,-2.492748 1.766977,-1.76698 2.756976,-1.458426 15.30122,4.768908 6.310821,3.13286 13.1882,6.51459 15.283059,7.51494 2.09486,1.00037 9.24855,4.48422 15.897076,7.74193 9.194546,4.5052 12.325826,5.87573 13.080716,5.72527 0.54584,-0.10875 2.67075,-1.11833 4.72197,-2.2434 5.10826,-2.80184 13.46131,-7.28781 18.46205,-9.91497 2.28544,-1.20066 5.49344,-2.91892 7.12893,-3.81838 1.63546,-0.89943 3.0435,-1.63533 3.12894,-1.63533 0.31581,0 22.45817,-12.014786 22.86447,-12.406627 0.37445,-0.361095 0.7974,-4.485966 0.50799,-4.954206 -0.23025,-0.372577 -8.27687,3.445903 -11.53149,5.472198 -1.22886,0.765074 -8.27825,4.536215 -21.5322,11.518825 -3.01261,1.58714 -8.75552,4.61753 -12.762,6.73419 -4.08419,2.15773 -8.12781,4.02933 -9.20402,4.26014 -2.87382,0.61634 -5.79126,-0.0866 -11.08777,-2.67168 -2.493201,-1.21683 -9.887808,-4.83952 -16.432466,-8.05041 C 52.245098,94.911808 44.551049,91.255604 43.253814,91.045094 c -1.665779,-0.270305 -3.069382,0.414797 -3.81879,1.863999 -0.783833,1.515747 -1.135316,9.055837 -0.53819,11.544957 0.95442,3.97845 1.631614,4.51227 12.41015,9.78266 5.338726,2.6105 18.291334,8.99389 28.783549,14.18534 10.492218,5.19144 19.926717,9.76193 20.965547,10.15662 2.81666,1.07018 4.28907,0.75418 9.44393,-2.02685 z m 1.60996,-28.91745 c 5.54814,-3.03557 13.26678,-7.18109 18.97783,-10.192576 2.18156,-1.150345 5.49638,-2.940595 7.36628,-3.978325 1.86991,-1.037741 5.18474,-2.814156 7.36628,-3.947579 2.18154,-1.133453 5.92135,-3.128059 8.31067,-4.432492 2.38932,-1.304453 5.61914,-3.04119 7.17739,-3.859439 1.55826,-0.818259 2.83318,-1.708958 2.83318,-1.979352 0,-0.429842 -6.76893,-3.789216 -35.88698,-17.81049 -3.53202,-1.700788 -8.27968,-4.004497 -10.55036,-5.119339 -2.87504,-1.411583 -4.58136,-2.027013 -5.62013,-2.027013 -1.1875,0 -3.31114,0.973238 -10.41519,4.773139 -21.435174,11.46551 -25.058264,13.394794 -29.700194,15.815265 -2.700965,1.408382 -6.626138,3.468391 -8.722583,4.577806 -2.096458,1.109406 -5.576103,2.939979 -7.732555,4.067934 -2.156438,1.127965 -3.979999,2.228399 -4.052327,2.445419 -0.07238,0.21701 1.100121,1.014805 2.605463,1.772901 2.075344,1.045115 3.036302,1.329761 3.975073,1.177419 0.680934,-0.1105 3.668078,-1.555594 6.638103,-3.211286 2.970025,-1.655713 7.014942,-3.900636 8.988729,-4.988724 1.973786,-1.088097 5.322764,-2.961078 7.442195,-4.162197 4.693028,-2.659633 5.078662,-2.789429 6.69871,-2.254767 3.37402,1.113527 3.345808,5.105951 -0.04969,7.01995 -0.997795,0.562464 -3.34408,1.91257 -5.213983,3.000241 -1.869905,1.087651 -4.759747,2.696609 -6.421886,3.575428 -1.662124,0.878819 -4.515188,2.47156 -6.340132,3.539412 -3.004463,1.758054 -3.254389,1.989733 -2.644299,2.451234 0.935672,0.707819 4.616515,2.331942 5.284985,2.331942 0.302911,0 2.279153,-1.002003 4.391646,-2.226672 2.112491,-1.22468 5.115826,-2.948405 6.674081,-3.830539 1.558242,-0.882113 5.043055,-2.914919 7.744021,-4.517327 2.700965,-1.602417 5.930798,-3.471379 7.177405,-4.153275 4.560638,-2.494654 11.899368,-6.973906 11.899368,-7.262866 0,-0.163364 -1.40242,-0.297985 -3.1165,-0.299142 -1.71408,-0.0012 -3.74624,-0.176997 -4.51592,-0.390774 -4.116092,-1.143168 -3.823005,-6.379981 0.4003,-7.152263 0.89274,-0.163248 6.52759,-0.274783 12.52189,-0.247857 10.42249,0.04683 10.9453,0.08353 11.96509,0.838458 2.05672,1.522677 2.15049,2.139849 1.44863,9.535685 -0.76653,8.077491 -1.01668,9.317355 -2.11593,10.48745 -1.25015,1.330723 -3.65602,1.268784 -5.06361,-0.130349 -1.04509,-1.038852 -1.04509,-1.038852 -0.8168,-5.083483 0.12549,-2.224558 0.10448,-4.12113 -0.0466,-4.214599 -0.26198,-0.161909 -6.01698,3.01611 -16.3268,9.015966 -5.564569,3.238341 -13.338558,7.697044 -18.887877,10.832993 -5.685496,3.212913 -5.608027,3.037863 -2.084936,4.710963 2.960916,1.40614 2.960916,1.40614 4.317274,0.64433 1.211313,-0.68034 7.066941,-4.000721 12.562269,-7.123322 9.18747,-5.220521 9.60892,-5.385953 11.47139,-4.502142 1.29101,0.612632 2.06584,1.88491 2.06584,3.392211 0,1.422217 -2.07803,3.327532 -5.85527,5.368569 -5.91545,3.196434 -13.032629,7.373194 -13.032629,7.648314 0,0.39774 6.036799,3.10463 7.555159,3.38772 1.92736,0.35934 3.95583,-0.359 9.35398,-3.31254 z"
       id="path33" /></g></svg>
